<svg xmlns="http://www.w3.org/2000/svg" xmlns:xlink="http://www.w3.org/1999/xlink" version="1.1" x="0px" y="0px" viewBox="0 0 100 125" style="enable-background:new 0 0 100 100;" xml:space="preserve"><g><path d="M67.1,83L28,83l-7.8,0h-2.4C8,83,0,75,0,65.1s8-17.9,17.9-17.9c0.2,0,0.5,0,0.7,0   c-0.4-1.7-0.6-3.5-0.6-5.3C18,28.2,29.1,17,42.9,17c11.2,0,20.7,7.4,23.8,17.6c2.6-0.9,5.4-1.4,8.4-1.4c13.8,0,24.9,11.2,24.9,24.9   c0,13.2-10.3,24.1-23.4,24.9l-4.6,0L67.1,83L67.1,83z"/></g><text x="0" y="115" fill="#000000" font-size="5px" font-weight="bold" font-family="'Helvetica Neue', Helvetica, Arial-Unicode, Arial, Sans-serif">Created by Andrei Yushchenko</text><text x="0" y="120" fill="#000000" font-size="5px" font-weight="bold" font-family="'Helvetica Neue', Helvetica, Arial-Unicode, Arial, Sans-serif">from the Noun Project</text></svg>