<svg xmlns="http://www.w3.org/2000/svg" viewBox="0 0 100 125" x="0px" y="0px"><g data-name="Layer 88"><path d="M50,34.22A15.78,15.78,0,1,0,65.78,50,15.79,15.79,0,0,0,50,34.22Zm0,27.56A11.78,11.78,0,1,1,61.78,50,11.8,11.8,0,0,1,50,61.78ZM48,28.94V21.17a2,2,0,0,1,4,0v7.77a2,2,0,0,1-4,0ZM33.82,26a2,2,0,0,1,3.47-2l3.88,6.74a2,2,0,1,1-3.46,2ZM23.28,34.61A2,2,0,0,1,26,33.88l6.73,3.88a2,2,0,1,1-2,3.47L24,37.34A2,2,0,0,1,23.28,34.61ZM28.94,52H21.17a2,2,0,0,1,0-4h7.77a2,2,0,0,1,0,4Zm3.84,10.26L26,66.18a2,2,0,0,1-1,.26,2,2,0,0,1-1-3.73l6.74-3.88a2,2,0,0,1,2,3.46Zm8.45,7L37.34,76a2,2,0,0,1-1.73,1,2,2,0,0,1-1-.27A2,2,0,0,1,33.88,74l3.88-6.73a2,2,0,1,1,3.47,2ZM52,71.06v7.77a2,2,0,1,1-4,0V71.06a2,2,0,0,1,4,0ZM66.18,74a2,2,0,0,1-.73,2.73A2,2,0,0,1,62.71,76l-3.88-6.74a2,2,0,0,1,3.46-2Zm10.54-8.57a2,2,0,0,1-2.73.73l-6.74-3.88a2,2,0,0,1,2-3.47L76,62.66A2,2,0,0,1,76.72,65.39ZM80.83,50a2,2,0,0,1-2,2H71.06a2,2,0,0,1,0-4h7.77A2,2,0,0,1,80.83,50ZM67.22,37.71,74,33.82a2,2,0,0,1,2,3.47l-6.74,3.88a1.9,1.9,0,0,1-1,.27,2,2,0,0,1-1-3.73Zm-8.45-7L62.66,24a2,2,0,1,1,3.46,2l-3.88,6.73a2,2,0,1,1-3.47-2Z"/></g><text x="0" y="115" fill="#000000" font-size="5px" font-weight="bold" font-family="'Helvetica Neue', Helvetica, Arial-Unicode, Arial, Sans-serif">Created by Rohit Chautmol</text><text x="0" y="120" fill="#000000" font-size="5px" font-weight="bold" font-family="'Helvetica Neue', Helvetica, Arial-Unicode, Arial, Sans-serif">from the Noun Project</text></svg>