<svg xmlns="http://www.w3.org/2000/svg" xmlns:xlink="http://www.w3.org/1999/xlink" version="1.1" x="0px" y="0px" viewBox="0 0 100 125" enable-background="new 0 0 100 100" xml:space="preserve"><g><path d="M63.583,53.684C62.085,54.226,60.543,54.5,59,54.5c-7.444,0-13.5-6.056-13.5-13.5c0-1.543,0.275-3.085,0.817-4.583   c0.198-0.548,0.062-1.16-0.35-1.571c-0.412-0.412-1.024-0.548-1.571-0.35C37.879,36.853,33.5,43.083,33.5,50   c0,9.098,7.402,16.5,16.5,16.5c6.917,0,13.147-4.379,15.504-10.896c0.198-0.547,0.062-1.159-0.35-1.57   C64.743,53.622,64.13,53.483,63.583,53.684z M50,63.5c-7.444,0-13.5-6.056-13.5-13.5c0-4.619,2.388-8.864,6.168-11.317   C42.556,39.452,42.5,40.226,42.5,41c0,9.098,7.402,16.5,16.5,16.5c0.775,0,1.548-0.056,2.317-0.168   C58.865,61.111,54.619,63.5,50,63.5z"/><path d="M69.186,41.604c-0.218-0.654-0.926-1.011-1.582-0.79l-1.354,0.451V40c0-0.69-0.56-1.25-1.25-1.25s-1.25,0.56-1.25,1.25   v1.266l-1.354-0.451c-0.656-0.221-1.363,0.136-1.582,0.79c-0.218,0.655,0.136,1.363,0.791,1.581l1.448,0.483l-1.092,1.639   c-0.383,0.574-0.228,1.351,0.347,1.733c0.213,0.143,0.454,0.21,0.692,0.21c0.404,0,0.8-0.195,1.041-0.557l0.96-1.44l0.96,1.44   c0.241,0.361,0.637,0.557,1.041,0.557c0.238,0,0.479-0.068,0.692-0.21c0.574-0.383,0.729-1.159,0.347-1.733l-1.092-1.639   l1.448-0.482C69.05,42.968,69.404,42.26,69.186,41.604z"/><path d="M54,42.25c0.33,0,0.65-0.13,0.88-0.37c0.24-0.23,0.37-0.55,0.37-0.88s-0.13-0.65-0.37-0.891   c-0.46-0.46-1.29-0.46-1.76,0.011c-0.24,0.229-0.37,0.55-0.37,0.88s0.13,0.649,0.37,0.88C53.35,42.12,53.67,42.25,54,42.25z"/><path d="M62,34.25c0.33,0,0.65-0.13,0.88-0.37c0.24-0.23,0.37-0.55,0.37-0.88s-0.13-0.65-0.37-0.891   c-0.46-0.46-1.29-0.46-1.77,0.011c-0.23,0.229-0.36,0.55-0.36,0.88s0.13,0.649,0.37,0.88C61.35,34.12,61.67,34.25,62,34.25z"/></g><text x="0" y="115" fill="#000000" font-size="5px" font-weight="bold" font-family="'Helvetica Neue', Helvetica, Arial-Unicode, Arial, Sans-serif">Created by Slavko Janjic</text><text x="0" y="120" fill="#000000" font-size="5px" font-weight="bold" font-family="'Helvetica Neue', Helvetica, Arial-Unicode, Arial, Sans-serif">from the Noun Project</text></svg>